<svg xmlns="http://www.w3.org/2000/svg" viewBox="0 0 900 520" fill="none">
  <defs>
    <linearGradient id="bg" x1="0" y1="0" x2="1" y2="1">
      <stop offset="0" stop-color="#e2e8f0"/>
      <stop offset="0.55" stop-color="#f8fafc"/>
      <stop offset="1" stop-color="#dbeafe"/>
    </linearGradient>
    <linearGradient id="chrome" x1="0" y1="1" x2="1" y2="0">
      <stop offset="0" stop-color="#0ea5e9"/>
      <stop offset="0.55" stop-color="#38bdf8"/>
      <stop offset="1" stop-color="#34d399"/>
    </linearGradient>
    <filter id="shadow" x="-20%" y="-20%" width="140%" height="140%">
      <feDropShadow dx="0" dy="14" stdDeviation="18" flood-color="#0f172a" flood-opacity="0.18"/>
    </filter>
  </defs>

  <rect x="0" y="0" width="900" height="520" rx="26" fill="url(#bg)"/>
  <g filter="url(#shadow)">
    <rect x="60" y="70" width="520" height="360" rx="22" fill="white" opacity="0.92"/>
    <rect x="86" y="104" width="210" height="18" rx="9" fill="#0f172a" opacity="0.75"/>
    <rect x="86" y="142" width="430" height="12" rx="6" fill="#0f172a" opacity="0.25"/>
    <rect x="86" y="168" width="390" height="12" rx="6" fill="#0f172a" opacity="0.22"/>

    <g>
      <rect x="86" y="215" width="454" height="160" rx="18" fill="#0b1220" opacity="0.06"/>
      <circle cx="160" cy="296" r="22" fill="url(#chrome)"/>
      <rect x="198" y="275" width="260" height="14" rx="7" fill="#0f172a" opacity="0.55"/>
      <rect x="198" y="301" width="200" height="12" rx="6" fill="#0f172a" opacity="0.25"/>
      <rect x="198" y="326" width="240" height="12" rx="6" fill="#0f172a" opacity="0.22"/>
      <rect x="450" y="268" width="80" height="34" rx="17" fill="url(#chrome)" opacity="0.95"/>
    </g>
  </g>

  <g filter="url(#shadow)">
    <rect x="610" y="115" width="230" height="300" rx="22" fill="#0b1220" opacity="0.07"/>
    <rect x="632" y="146" width="186" height="16" rx="8" fill="#0f172a" opacity="0.55"/>
    <circle cx="728" cy="250" r="66" fill="url(#chrome)" opacity="0.12"/>
    <circle cx="728" cy="250" r="54" stroke="url(#chrome)" stroke-width="10" opacity="0.75"/>
    <circle cx="728" cy="250" r="26" fill="#ffffff" opacity="0.85"/>
    <rect x="648" y="342" width="160" height="12" rx="6" fill="#0f172a" opacity="0.22"/>
    <rect x="672" y="366" width="112" height="12" rx="6" fill="#0f172a" opacity="0.18"/>
  </g>

  <g opacity="0.85">
    <path d="M130 470c90-60 180-80 280-40 70 30 150 30 230-20" stroke="url(#chrome)" stroke-width="6" stroke-linecap="round"/>
    <circle cx="130" cy="470" r="8" fill="#0ea5e9"/>
    <circle cx="410" cy="430" r="8" fill="#38bdf8"/>
    <circle cx="640" cy="410" r="8" fill="#34d399"/>
  </g>
</svg>
